# xmcd CD database file
#
# Track frame offsets:
#	150
#	21187
#	30367
#	52155
#
# Disc length: 974 seconds
#
# Revision: 0
# Processed by: cddbd v1.5.1PL0 Copyright (c) Steve Scherf et al.
# Submitted via: CDex 1.51
#
DISCID=2a03cc04
DTITLE=悠久幻想曲 - あの日の君に　アレフ・コールソン
DYEAR=1999
DGENRE=Game
TTITLE0=あの日の君に
TTITLE1=It's All Right
TTITLE2=アレフのひとりごと
TTITLE3=あの日の君に(カラオケ)
EXTD=YEAR: 1999
EXTT0=
EXTT1=
EXTT2=
EXTT3=
PLAYORDER=
